<svg width="165" height="34" viewBox="0 0 165 34" fill="none" xmlns="http://www.w3.org/2000/svg">
<path d="M4.63809 9.775H6.28809V2.905C6.28809 2.795 6.32809 2.7 6.40809 2.62C6.48809 2.54 6.58309 2.5 6.69309 2.5H9.63309C9.74309 2.5 9.83809 2.54 9.91809 2.62C9.99809 2.7 10.0381 2.795 10.0381 2.905V9.775H10.6081C10.7181 9.775 10.8131 9.815 10.8931 9.895C10.9731 9.975 11.0131 10.07 11.0131 10.18V14.455C11.0131 14.565 10.9731 14.66 10.8931 14.74C10.8131 14.82 10.7181 14.86 10.6081 14.86H8.19309C8.08309 14.86 7.98809 14.82 7.90809 14.74C7.82809 14.66 7.78809 14.565 7.78809 14.455V13H1.14309C1.03309 13 0.938086 12.96 0.858086 12.88C0.778086 12.8 0.738086 12.705 0.738086 12.595V2.905C0.738086 2.785 0.778086 2.69 0.858086 2.62C0.938086 2.54 1.03309 2.5 1.14309 2.5H4.23309C4.34309 2.5 4.43809 2.54 4.51809 2.62C4.59809 2.7 4.63809 2.795 4.63809 2.905V9.775ZM15.6122 8.575V10.195H16.2872C16.6072 10.195 16.8522 10.12 17.0222 9.97C17.1922 9.82 17.2772 9.615 17.2772 9.355C17.2772 8.835 16.9472 8.575 16.2872 8.575H15.6122ZM15.6122 2.905V5.845H16.2872C17.6272 5.845 18.6772 6.165 19.4372 6.805C20.1972 7.435 20.5772 8.285 20.5772 9.355C20.5772 10.425 20.1922 11.3 19.4222 11.98C18.6622 12.66 17.6222 13 16.3022 13H12.5672C12.4572 13 12.3622 12.96 12.2822 12.88C12.2022 12.8 12.1622 12.705 12.1622 12.595V2.905C12.1622 2.795 12.2022 2.7 12.2822 2.62C12.3622 2.54 12.4572 2.5 12.5672 2.5H15.2072C15.3172 2.5 15.4122 2.54 15.4922 2.62C15.5722 2.7 15.6122 2.795 15.6122 2.905ZM24.0122 13H21.4022C21.2922 13 21.1972 12.96 21.1172 12.88C21.0372 12.8 20.9972 12.705 20.9972 12.595V2.905C20.9972 2.795 21.0372 2.7 21.1172 2.62C21.1972 2.54 21.2922 2.5 21.4022 2.5H24.0122C24.1222 2.5 24.2172 2.54 24.2972 2.62C24.3772 2.7 24.4172 2.795 24.4172 2.905V12.595C24.4172 12.705 24.3772 12.8 24.2972 12.88C24.2172 12.96 24.1222 13 24.0122 13ZM31.0414 13H27.9514C27.8414 13 27.7464 12.96 27.6664 12.88C27.5864 12.8 27.5464 12.705 27.5464 12.595V2.905C27.5464 2.795 27.5864 2.7 27.6664 2.62C27.7464 2.54 27.8414 2.5 27.9514 2.5H36.0964C36.2064 2.5 36.3014 2.54 36.3814 2.62C36.4614 2.7 36.5014 2.795 36.5014 2.905V5.32C36.5014 5.43 36.4614 5.525 36.3814 5.605C36.3014 5.685 36.2064 5.725 36.0964 5.725H31.4314L31.4464 12.595C31.4464 12.705 31.4064 12.8 31.3264 12.88C31.2464 12.96 31.1514 13 31.0414 13ZM40.9355 13H38.1005C38.0105 13 37.9305 12.97 37.8605 12.91C37.8005 12.84 37.7705 12.775 37.7705 12.715C37.7705 12.655 37.7755 12.61 37.7855 12.58L41.0555 2.995C41.1455 2.665 41.3705 2.5 41.7305 2.5H45.9005C46.2605 2.5 46.4855 2.665 46.5755 2.995L49.8455 12.58C49.8555 12.61 49.8605 12.655 49.8605 12.715C49.8605 12.775 49.8255 12.84 49.7555 12.91C49.6955 12.97 49.6205 13 49.5305 13H46.6955C46.3755 13 46.1505 12.83 46.0205 12.49L45.6455 11.44H41.9855L41.6105 12.49C41.4805 12.83 41.2555 13 40.9355 13ZM44.8805 8.515L43.8155 5.395L42.7505 8.515H44.8805ZM58.4196 2.5H61.5096C61.6196 2.5 61.7146 2.54 61.7946 2.62C61.8746 2.7 61.9146 2.795 61.9146 2.905V12.595C61.9146 12.705 61.8746 12.8 61.7946 12.88C61.7146 12.96 61.6196 13 61.5096 13H58.4196C58.3096 13 58.2146 12.96 58.1346 12.88C58.0546 12.8 58.0146 12.705 58.0146 12.595V9.4H55.0146V12.595C55.0146 12.705 54.9746 12.8 54.8946 12.88C54.8146 12.96 54.7196 13 54.6096 13H51.5196C51.4096 13 51.3146 12.965 51.2346 12.895C51.1546 12.815 51.1146 12.715 51.1146 12.595V2.905C51.1146 2.795 51.1546 2.7 51.2346 2.62C51.3146 2.54 51.4096 2.5 51.5196 2.5H54.6096C54.7196 2.5 54.8146 2.54 54.8946 2.62C54.9746 2.7 55.0146 2.795 55.0146 2.905V5.98H58.0146V2.905C58.0146 2.795 58.0546 2.7 58.1346 2.62C58.2146 2.54 58.3096 2.5 58.4196 2.5ZM67.8788 6.55V8.95C67.8788 9.36 68.0138 9.675 68.2838 9.895C68.5638 10.115 68.9238 10.225 69.3638 10.225C69.8138 10.225 70.1388 10.155 70.3388 10.015C70.5388 9.875 70.7038 9.67 70.8338 9.4C70.9738 9.13 71.1538 8.995 71.3738 8.995H74.6138C74.7038 8.995 74.7788 9.03 74.8388 9.1C74.9088 9.16 74.9438 9.235 74.9438 9.325C74.9438 10.255 74.5038 11.105 73.6238 11.875C73.1838 12.255 72.5988 12.565 71.8688 12.805C71.1388 13.035 70.2788 13.15 69.2888 13.15C68.2988 13.15 67.3938 13 66.5738 12.7C65.7638 12.39 65.1038 11.89 64.5938 11.2C64.0838 10.5 63.8288 9.645 63.8288 8.635V6.865C63.8288 5.855 64.0838 5 64.5938 4.3C65.5538 3 67.1588 2.35 69.4088 2.35C70.3188 2.35 71.1388 2.47 71.8688 2.71C72.5988 2.94 73.1838 3.245 73.6238 3.625C74.5038 4.395 74.9438 5.245 74.9438 6.175C74.9438 6.265 74.9088 6.345 74.8388 6.415C74.7788 6.475 74.7038 6.505 74.6138 6.505H71.3738C71.1538 6.505 70.9738 6.37 70.8338 6.1C70.7038 5.83 70.5388 5.625 70.3388 5.485C70.1388 5.345 69.8138 5.275 69.3638 5.275C68.9238 5.275 68.5638 5.385 68.2838 5.605C68.0138 5.825 67.8788 6.14 67.8788 6.55ZM88.1979 12.475C88.2379 12.535 88.2579 12.605 88.2579 12.685C88.2579 12.765 88.2229 12.84 88.1529 12.91C88.0929 12.97 88.0179 13 87.9279 13H84.0579C83.8279 13 83.6479 12.92 83.5179 12.76L80.9079 9.535V12.595C80.9079 12.705 80.8679 12.8 80.7879 12.88C80.7079 12.96 80.6129 13 80.5029 13H77.4129C77.3029 13 77.2079 12.96 77.1279 12.88C77.0479 12.8 77.0079 12.705 77.0079 12.595V2.905C77.0079 2.795 77.0479 2.7 77.1279 2.62C77.2079 2.54 77.3029 2.5 77.4129 2.5H80.5029C80.6129 2.5 80.7079 2.54 80.7879 2.62C80.8679 2.7 80.9079 2.795 80.9079 2.905V5.725L83.2779 2.755C83.4279 2.585 83.6129 2.5 83.8329 2.5H87.4479C87.5379 2.5 87.6129 2.535 87.6729 2.605C87.7429 2.665 87.7779 2.74 87.7779 2.83C87.7779 2.91 87.7529 2.98 87.7029 3.04L84.1479 7.375L88.1979 12.475ZM89.9621 2.5H92.7521C92.8621 2.5 92.9571 2.54 93.0371 2.62C93.1171 2.7 93.1571 2.795 93.1571 2.905V7.315L96.4271 2.8C96.5771 2.6 96.7721 2.5 97.0121 2.5H99.4421C99.5521 2.5 99.6471 2.54 99.7271 2.62C99.8071 2.7 99.8471 2.795 99.8471 2.905V12.595C99.8471 12.705 99.8071 12.8 99.7271 12.88C99.6471 12.96 99.5521 13 99.4421 13H96.6521C96.5421 13 96.4471 12.96 96.3671 12.88C96.2871 12.8 96.2471 12.705 96.2471 12.595V8.515L92.9771 12.685C92.8171 12.895 92.6171 13 92.3771 13H89.9621C89.8521 13 89.7571 12.96 89.6771 12.88C89.5971 12.8 89.5571 12.705 89.5571 12.595V2.905C89.5571 2.795 89.5971 2.7 89.6771 2.62C89.7571 2.54 89.8521 2.5 89.9621 2.5ZM108.481 0.175H109.966C110.156 0.175 110.251 0.239999 110.251 0.369999C110.251 0.839999 110.021 1.24 109.561 1.57C109.101 1.89 108.441 2.05 107.581 2.05C106.731 2.05 106.076 1.89 105.616 1.57C105.156 1.24 104.926 0.839999 104.926 0.369999C104.926 0.239999 105.021 0.175 105.211 0.175H106.696C106.846 0.175 106.941 0.239999 106.981 0.369999C107.041 0.619999 107.231 0.745 107.551 0.745C107.871 0.745 108.086 0.619999 108.196 0.369999C108.256 0.239999 108.351 0.175 108.481 0.175ZM102.706 2.5H105.496C105.606 2.5 105.701 2.54 105.781 2.62C105.861 2.7 105.901 2.795 105.901 2.905V7.315L109.171 2.8C109.321 2.6 109.516 2.5 109.756 2.5H112.186C112.296 2.5 112.391 2.54 112.471 2.62C112.551 2.7 112.591 2.795 112.591 2.905V12.595C112.591 12.705 112.551 12.8 112.471 12.88C112.391 12.96 112.296 13 112.186 13H109.396C109.286 13 109.191 12.96 109.111 12.88C109.031 12.8 108.991 12.705 108.991 12.595V8.515L105.721 12.685C105.561 12.895 105.361 13 105.121 13H102.706C102.596 13 102.501 12.96 102.421 12.88C102.341 12.8 102.301 12.705 102.301 12.595V2.905C102.301 2.795 102.341 2.7 102.421 2.62C102.501 2.54 102.596 2.5 102.706 2.5ZM130.729 2.905V5.17C130.729 5.63 130.854 5.965 131.104 6.175C131.354 6.385 131.664 6.49 132.034 6.49H133.744V2.905C133.744 2.795 133.784 2.7 133.864 2.62C133.944 2.54 134.039 2.5 134.149 2.5H137.239C137.349 2.5 137.444 2.54 137.524 2.62C137.604 2.7 137.644 2.795 137.644 2.905V12.595C137.644 12.705 137.604 12.8 137.524 12.88C137.444 12.96 137.349 13 137.239 13H134.149C134.039 13 133.944 12.96 133.864 12.88C133.784 12.8 133.744 12.705 133.744 12.595V9.91H131.989C129.869 9.91 128.374 9.21 127.504 7.81C127.054 7.07 126.829 6.17 126.829 5.11L126.844 2.905C126.844 2.795 126.884 2.7 126.964 2.62C127.044 2.54 127.139 2.5 127.249 2.5H130.324C130.434 2.5 130.529 2.54 130.609 2.62C130.689 2.7 130.729 2.795 130.729 2.905ZM142.889 13H140.054C139.964 13 139.884 12.97 139.814 12.91C139.754 12.84 139.724 12.775 139.724 12.715C139.724 12.655 139.729 12.61 139.739 12.58L143.009 2.995C143.099 2.665 143.324 2.5 143.684 2.5H147.854C148.214 2.5 148.439 2.665 148.529 2.995L151.799 12.58C151.809 12.61 151.814 12.655 151.814 12.715C151.814 12.775 151.779 12.84 151.709 12.91C151.649 12.97 151.574 13 151.484 13H148.649C148.329 13 148.104 12.83 147.974 12.49L147.599 11.44H143.939L143.564 12.49C143.434 12.83 143.209 13 142.889 13ZM146.834 8.515L145.769 5.395L144.704 8.515H146.834ZM153.293 2.5H163.643C163.753 2.5 163.848 2.54 163.928 2.62C164.008 2.7 164.048 2.795 164.048 2.905V5.32C164.048 5.43 164.008 5.525 163.928 5.605C163.848 5.685 163.753 5.725 163.643 5.725H160.418V12.595C160.418 12.705 160.378 12.8 160.298 12.88C160.218 12.96 160.123 13 160.013 13H156.923C156.813 13 156.718 12.96 156.638 12.88C156.558 12.8 156.518 12.705 156.518 12.595V5.725H153.293C153.183 5.725 153.088 5.685 153.008 5.605C152.928 5.525 152.888 5.43 152.888 5.32V2.905C152.888 2.795 152.928 2.7 153.008 2.62C153.088 2.54 153.183 2.5 153.293 2.5ZM29.8153 32.9175H28.7894V31H23.1766V32.9229H22.1454L22.14 30.1567H22.7792C23.1158 29.7772 23.3825 29.2687 23.5795 28.6313C23.78 27.9904 23.9053 27.2886 23.9554 26.5259L24.1273 23.1797H28.8055V30.1567H29.8261L29.8153 32.9175ZM23.9554 30.1567H27.7689V24.0283H25.121L25.0082 26.3271C24.9616 27.2259 24.8417 27.9922 24.6483 28.626C24.4585 29.2598 24.2276 29.77 23.9554 30.1567ZM36.9 25.1885V31H35.901V26.0103H33.9244L33.8062 28.1855C33.7418 29.1846 33.5735 29.8989 33.3014 30.3286C33.0328 30.7583 32.6049 30.9821 32.0177 31H31.6202V30.1245L31.9049 30.103C32.2271 30.0672 32.4581 29.881 32.5978 29.5444C32.7374 29.2078 32.8269 28.5848 32.8663 27.6753L32.9737 25.1885H36.9ZM44.0921 25.1885V31H43.0931V28.7388H41.5946L40.2249 31H39.1507L40.6116 28.5884C40.2392 28.4523 39.9528 28.2428 39.7523 27.96C39.5553 27.6735 39.4569 27.3405 39.4569 26.9609C39.4569 26.431 39.6556 26.0049 40.053 25.6826C40.4505 25.3568 40.9822 25.1921 41.6483 25.1885H44.0921ZM40.4559 26.9717C40.4559 27.2546 40.5526 27.4837 40.7459 27.6592C40.9393 27.8311 41.1953 27.9188 41.514 27.9224H43.0931V25.9941H41.6644C41.2956 25.9941 41.0019 26.0854 40.7835 26.2681C40.5651 26.4471 40.4559 26.6816 40.4559 26.9717ZM55.635 28.1587C55.635 29.0431 55.4327 29.7557 55.0281 30.2964C54.6235 30.8371 54.0756 31.1074 53.3845 31.1074C52.6791 31.1074 52.1241 30.8836 51.7195 30.436V33.2344H50.7258V25.1885H51.6336L51.6819 25.833C52.0865 25.3317 52.6487 25.0811 53.3684 25.0811C54.0667 25.0811 54.6181 25.3442 55.0227 25.8706C55.4309 26.397 55.635 27.1292 55.635 28.0674V28.1587ZM54.6414 28.0459C54.6414 27.3906 54.5017 26.8732 54.2224 26.4937C53.9431 26.1141 53.56 25.9243 53.073 25.9243C52.4714 25.9243 52.0203 26.1911 51.7195 26.7246V29.5015C52.0167 30.0314 52.4714 30.2964 53.0837 30.2964C53.56 30.2964 53.9378 30.1084 54.217 29.7324C54.4999 29.3529 54.6414 28.7907 54.6414 28.0459ZM60.4692 31.1074C59.6815 31.1074 59.0405 30.8496 58.5464 30.334C58.0522 29.8148 57.8052 29.1219 57.8052 28.2554V28.0728C57.8052 27.4963 57.9144 26.9824 58.1328 26.5312C58.3548 26.0765 58.6627 25.722 59.0566 25.4678C59.4541 25.21 59.8838 25.0811 60.3457 25.0811C61.1012 25.0811 61.6885 25.3299 62.1074 25.8276C62.5263 26.3254 62.7358 27.0379 62.7358 27.9653V28.3789H58.7988C58.8131 28.9518 58.9796 29.4155 59.2983 29.77C59.6206 30.1209 60.0288 30.2964 60.5229 30.2964C60.8738 30.2964 61.171 30.2248 61.4145 30.0815C61.658 29.9383 61.8711 29.7485 62.0537 29.5122L62.6606 29.9849C62.1736 30.7332 61.4432 31.1074 60.4692 31.1074ZM60.3457 25.8975C59.9446 25.8975 59.6081 26.0443 59.3359 26.3379C59.0638 26.6279 58.8955 27.0361 58.831 27.5625H61.7422V27.4873C61.7135 26.9824 61.5775 26.5921 61.334 26.3164C61.0905 26.0371 60.761 25.8975 60.3457 25.8975ZM67.5969 25.5215C68.3273 25.5215 68.911 25.7668 69.3479 26.2573C69.7883 26.7443 70.0085 27.387 70.0085 28.1855V28.2769C70.0085 28.8247 69.9029 29.3153 69.6916 29.7485C69.4803 30.1782 69.176 30.513 68.7785 30.7529C68.3846 30.9893 67.9299 31.1074 67.4143 31.1074C66.6337 31.1074 66.0052 30.8478 65.529 30.3286C65.0528 29.8058 64.8147 29.1058 64.8147 28.2285V27.7451C64.8147 26.5241 65.0402 25.5537 65.4914 24.834C65.9462 24.1143 66.6158 23.6756 67.5002 23.5181C68.0015 23.4285 68.3399 23.3193 68.5153 23.1904C68.6908 23.0615 68.7785 22.8843 68.7785 22.6587H69.5949C69.5949 23.1063 69.4929 23.4554 69.2888 23.7061C69.0883 23.9567 68.766 24.134 68.322 24.2378L67.5808 24.4043C66.9899 24.5439 66.5459 24.7803 66.2487 25.1133C65.9551 25.4427 65.7635 25.8831 65.674 26.4346C66.2004 25.8258 66.8413 25.5215 67.5969 25.5215ZM67.4035 26.3379C66.9165 26.3379 66.5298 26.5026 66.2434 26.832C65.9569 27.1579 65.8137 27.6108 65.8137 28.1909V28.2769C65.8137 28.8999 65.9569 29.394 66.2434 29.7593C66.5334 30.1209 66.9237 30.3018 67.4143 30.3018C67.9084 30.3018 68.2987 30.1191 68.5852 29.7539C68.8716 29.3887 69.0148 28.8551 69.0148 28.1533C69.0148 27.6055 68.8698 27.1668 68.5798 26.8374C68.2933 26.5044 67.9012 26.3379 67.4035 26.3379ZM76.7226 25.1885V31H75.7236V28.7388H74.225L72.8554 31H71.7812L73.2421 28.5884C72.8697 28.4523 72.5833 28.2428 72.3827 27.96C72.1858 27.6735 72.0873 27.3405 72.0873 26.9609C72.0873 26.431 72.2861 26.0049 72.6835 25.6826C73.081 25.3568 73.6127 25.1921 74.2787 25.1885H76.7226ZM73.0863 26.9717C73.0863 27.2546 73.183 27.4837 73.3764 27.6592C73.5697 27.8311 73.8258 27.9188 74.1445 27.9224H75.7236V25.9941H74.2948C73.926 25.9941 73.6324 26.0854 73.414 26.2681C73.1956 26.4471 73.0863 26.6816 73.0863 26.9717ZM83.7912 25.9941H81.8414V31H80.8478V25.9941H78.9357V25.1885H83.7912V25.9941ZM93.5562 25.1885H94.5499V31H93.5562V26.7622L90.8761 31H89.8824V25.1885H90.8761V29.4316L93.5562 25.1885ZM101.135 30.189L101.479 29.7646C101.866 29.2633 102.086 28.5114 102.14 27.5088L102.231 25.1885H105.975V30.189H106.721V32.708H105.728V31H101.672V32.708H100.679L100.684 30.189H101.135ZM102.312 30.189H104.981V26.1069H103.192L103.133 27.4927C103.072 28.6493 102.799 29.548 102.312 30.189ZM111.389 31.1074C110.601 31.1074 109.96 30.8496 109.466 30.334C108.972 29.8148 108.725 29.1219 108.725 28.2554V28.0728C108.725 27.4963 108.834 26.9824 109.052 26.5312C109.274 26.0765 109.582 25.722 109.976 25.4678C110.374 25.21 110.803 25.0811 111.265 25.0811C112.021 25.0811 112.608 25.3299 113.027 25.8276C113.446 26.3254 113.656 27.0379 113.656 27.9653V28.3789H109.718C109.733 28.9518 109.899 29.4155 110.218 29.77C110.54 30.1209 110.948 30.2964 111.443 30.2964C111.794 30.2964 112.091 30.2248 112.334 30.0815C112.578 29.9383 112.791 29.7485 112.973 29.5122L113.58 29.9849C113.093 30.7332 112.363 31.1074 111.389 31.1074ZM111.265 25.8975C110.864 25.8975 110.528 26.0443 110.256 26.3379C109.983 26.6279 109.815 27.0361 109.751 27.5625H112.662V27.4873C112.633 26.9824 112.497 26.5921 112.254 26.3164C112.01 26.0371 111.681 25.8975 111.265 25.8975ZM116.057 31V25.1885H118.323C119.097 25.1885 119.689 25.3245 120.101 25.5967C120.516 25.8652 120.724 26.2609 120.724 26.7837C120.724 27.0522 120.644 27.2957 120.482 27.5142C120.321 27.729 120.083 27.8937 119.768 28.0083C120.119 28.0907 120.4 28.2518 120.611 28.4917C120.826 28.7316 120.934 29.0181 120.934 29.3511C120.934 29.8846 120.737 30.2928 120.343 30.5757C119.952 30.8586 119.399 31 118.683 31H116.057ZM117.05 28.4487V30.1997H118.694C119.109 30.1997 119.419 30.1227 119.623 29.9688C119.831 29.8148 119.935 29.5981 119.935 29.3188C119.935 28.7388 119.508 28.4487 118.656 28.4487H117.05ZM117.05 27.6538H118.334C119.265 27.6538 119.73 27.3817 119.73 26.8374C119.73 26.2931 119.29 26.012 118.409 25.9941H117.05V27.6538ZM127.793 31H126.794V28.8945C126.357 29.0091 125.909 29.0664 125.451 29.0664C124.724 29.0664 124.169 28.8802 123.786 28.5078C123.406 28.1354 123.213 27.6055 123.206 26.918V25.1831H124.199V26.9502C124.217 27.8167 124.634 28.25 125.451 28.25C125.909 28.25 126.357 28.1927 126.794 28.0781V25.1885H127.793V31ZM134.131 31C134.073 30.8854 134.027 30.6813 133.991 30.3877C133.529 30.8675 132.978 31.1074 132.337 31.1074C131.764 31.1074 131.293 30.9463 130.924 30.624C130.559 30.2982 130.376 29.8864 130.376 29.3887C130.376 28.7835 130.606 28.3145 131.064 27.9814C131.526 27.6449 132.174 27.4766 133.008 27.4766H133.975V27.02C133.975 26.6727 133.871 26.397 133.663 26.1929C133.456 25.9852 133.15 25.8813 132.745 25.8813C132.391 25.8813 132.093 25.9709 131.853 26.1499C131.613 26.3289 131.494 26.5456 131.494 26.7998H130.495C130.495 26.5098 130.597 26.2305 130.801 25.9619C131.008 25.6898 131.288 25.4749 131.639 25.3174C131.993 25.1598 132.382 25.0811 132.804 25.0811C133.474 25.0811 133.998 25.2493 134.378 25.5859C134.757 25.9189 134.954 26.3791 134.969 26.9663V29.6411C134.969 30.1746 135.037 30.599 135.173 30.9141V31H134.131ZM132.482 30.2427C132.793 30.2427 133.089 30.1621 133.368 30.001C133.647 29.8398 133.85 29.6304 133.975 29.3726V28.1802H133.196C131.979 28.1802 131.37 28.5365 131.37 29.249C131.37 29.5605 131.474 29.804 131.682 29.9795C131.889 30.1549 132.156 30.2427 132.482 30.2427ZM141.914 25.9941H139.964V31H138.97V25.9941H137.058V25.1885H141.914V25.9941Z" fill="white"/>
</svg>
